<svg width="20" height="20" xmlns="http://www.w3.org/2000/svg" viewBox="0 0 24 24" fill="#CCCCCC" gradientcolor1="#CCCCCC" gradientcolor2="#CCCCCC"><path d="M17.5 12a5.5 5.5 0 110 11 5.5 5.5 0 010-11zm-5.477 2a6.47 6.47 0 00-.709 1.5H4.253a.749.749 0 00-.75.749v.578c0 .535.192 1.053.54 1.46 1.253 1.468 3.22 2.214 5.957 2.214.597 0 1.157-.035 1.68-.106.246.495.553.954.912 1.367-.795.16-1.66.24-2.592.24-3.146 0-5.532-.906-7.098-2.74a3.75 3.75 0 01-.898-2.436v-.577a2.249 2.249 0 012.249-2.25h7.77zm5.477 0l-.09.008a.5.5 0 00-.402.402L17 14.5V17h-2.496l-.09.008a.5.5 0 00-.402.402l-.008.09.008.09a.5.5 0 00.402.402l.09.008H17L17 20.5l.008.09a.5.5 0 00.402.402l.09.008.09-.008a.5.5 0 00.402-.402L18 20.5V18h2.504l.09-.008a.5.5 0 00.402-.402l.008-.09-.008-.09a.5.5 0 00-.402-.402l-.09-.008H18L18 14.5l-.008-.09a.5.5 0 00-.402-.402L17.5 14zM10 2.005a5 5 0 110 10 5 5 0 010-10zm0 1.5a3.5 3.5 0 100 7 3.5 3.5 0 000-7z"/></svg>