<svg width="24" height="24" xmlns="http://www.w3.org/2000/svg" viewBox="0 0 24 24" fill="#FFFFFF" gradientcolor1="#FFFFFF" gradientcolor2="#FFFFFF"><path d="M18.25 11a.75.75 0 01.743.648l.007.102v.5a6.75 6.75 0 01-6.249 6.732l-.001 2.268a.75.75 0 01-1.493.102l-.007-.102v-2.268a6.75 6.75 0 01-6.246-6.496L5 12.25v-.5a.75.75 0 011.493-.102l.007.102v.5a5.25 5.25 0 005.034 5.246l.216.004h.5a5.25 5.25 0 005.246-5.034l.004-.216v-.5a.75.75 0 01.75-.75zM12 2a4 4 0 014 4v6a4 4 0 01-8 0V6a4 4 0 014-4zm0 1.5A2.5 2.5 0 009.5 6v6a2.5 2.5 0 005 0V6A2.5 2.5 0 0012 3.5z"/></svg>