<svg width="16" height="18" viewBox="0 0 16 18" fill="#d5d9de" xmlns="http://www.w3.org/2000/svg">
<path d="M14.4617 8.16665C14.6127 8.16665 14.7586 8.22135 14.8724 8.32062C14.9863 8.41989 15.0603 8.55702 15.0808 8.70665L15.0867 8.79165V14.625C15.0869 15.3168 14.8225 15.9824 14.3475 16.4854C13.8726 16.9884 13.2232 17.2906 12.5325 17.33L12.3783 17.3341H3.21167C2.51989 17.3342 1.85431 17.0695 1.35147 16.5944C0.84864 16.1193 0.546666 15.4698 0.507501 14.7791L0.503334 14.6258V8.79165C0.503383 8.63329 0.563538 8.48086 0.671645 8.36515C0.779751 8.24944 0.927749 8.17909 1.08573 8.16829C1.24372 8.1575 1.39991 8.20708 1.52275 8.30701C1.64559 8.40694 1.72592 8.54977 1.7475 8.70665L1.75333 8.79165V14.625C1.75316 14.9912 1.89081 15.3442 2.13892 15.6136C2.38704 15.883 2.72746 16.0492 3.0925 16.0791L3.21167 16.0841H12.3783C12.7445 16.0841 13.0972 15.9464 13.3664 15.6983C13.6357 15.4502 13.8017 15.1099 13.8317 14.745L13.8367 14.6258V8.79165C13.8367 8.62589 13.9025 8.46692 14.0197 8.34971C14.1369 8.23249 14.2959 8.16665 14.4617 8.16665V8.16665ZM3.18333 5.01331L7.34667 0.84998C7.45249 0.744132 7.59279 0.679776 7.74204 0.668612C7.8913 0.657448 8.03961 0.700219 8.16 0.789147L8.23 0.849147L12.4008 5.01331C12.5129 5.12469 12.5787 5.27441 12.5849 5.43233C12.591 5.59024 12.5371 5.74463 12.4341 5.86441C12.331 5.98419 12.1863 6.06047 12.0293 6.0779C11.8722 6.09532 11.7143 6.05259 11.5875 5.95831L11.5175 5.89748L8.415 2.80081L8.41583 12.5458C8.41583 12.6968 8.36113 12.8428 8.26186 12.9566C8.16259 13.0704 8.02546 13.1444 7.87583 13.165L7.79083 13.1708C7.6398 13.1708 7.49388 13.1161 7.38006 13.0168C7.26623 12.9176 7.19221 12.7804 7.17167 12.6308L7.16583 12.5458V2.79831L4.06667 5.89748C3.96084 6.00333 3.82055 6.06769 3.67129 6.07885C3.52203 6.09001 3.37373 6.04724 3.25333 5.95831L3.18333 5.89748C3.07727 5.79161 3.01277 5.65115 3.00161 5.5017C2.99044 5.35226 3.03335 5.20377 3.1225 5.08331L3.18333 5.01331L7.34667 0.84998L3.18333 5.01331Z" fill="#F1F1F4"/>
</svg>
