<svg width="20" height="20" xmlns="http://www.w3.org/2000/svg" viewBox="0 0 24 24" fill="#F1F1F4" gradientcolor1="#F1F1F4" gradientcolor2="#F1F1F4"><path d="M2 6.25A2.25 2.25 0 014.25 4h15.5A2.25 2.25 0 0122 6.25v11.5A2.25 2.25 0 0119.75 20H4.25A2.25 2.25 0 012 17.75V6.25zm2.25-.75a.75.75 0 00-.75.75v11.5c0 .414.336.75.75.75h15.5a.75.75 0 00.75-.75V6.25a.75.75 0 00-.75-.75H4.25zM12 7.245a.75.75 0 01.53.22l3.255 3.255a.75.75 0 11-1.06 1.06L12.75 9.806v6.447a.75.75 0 01-1.5 0V9.808L9.28 11.78a.75.75 0 11-1.06-1.06l3.25-3.254a.75.75 0 01.53-.22z"/></svg>