<svg width="24" height="24" xmlns="http://www.w3.org/2000/svg" viewBox="0 0 24 24" fill="#FFFFFF" gradientcolor1="#FFFFFF" gradientcolor2="#FFFFFF"><path d="M13.75 4.5A3.25 3.25 0 0117 7.75v.173l3.864-2.318A.75.75 0 0122 6.248V17.75a.75.75 0 01-1.136.643L17 16.075v.175a3.25 3.25 0 01-3.25 3.25h-8.5A3.25 3.25 0 012 16.25v-8.5A3.25 3.25 0 015.25 4.5h8.5zm0 1.5h-8.5A1.75 1.75 0 003.5 7.75v8.5c0 .966.784 1.75 1.75 1.75h8.5a1.75 1.75 0 001.75-1.75v-8.5A1.75 1.75 0 0013.75 6zm6.75 1.573L17 9.674v4.651l3.5 2.1V7.573z"/></svg>