<svg width="24" height="24" xmlns="http://www.w3.org/2000/svg" viewBox="0 0 24 24" fill="#FFFFFF" gradientcolor1="#FFFFFF" gradientcolor2="#FFFFFF"><path d="M3.28 2.22a.75.75 0 10-1.06 1.06l1.567 1.567A3.25 3.25 0 002 7.75v8.5a3.25 3.25 0 003.25 3.25h8.5a3.25 3.25 0 002.903-1.786l4.066 4.067a.75.75 0 001.061-1.061L3.28 2.22zm12.196 14.317A1.75 1.75 0 0113.75 18h-8.5a1.75 1.75 0 01-1.75-1.75v-8.5c0-.869.633-1.59 1.463-1.727l10.514 10.514zm.024-4.219V7.75A1.75 1.75 0 0013.75 6H9.182l-1.5-1.5h6.068A3.25 3.25 0 0117 7.75v.173l3.864-2.318A.75.75 0 0122 6.248V17.75c0 .301-.17.543-.403.665L20.5 17.318V7.573L17 9.674v4.144l-1.5-1.5z"/><rect x="2.745" y="1.685" width="27.701" height="1.5" rx="0.75" transform="rotate(45 2.745 1.685)" fill="#F44336"/></svg>